<svg width="3em" xmlns="http://www.w3.org/2000/svg"  xmlns:xlink="http://www.w3.org/1999/xlink" height="3em" viewBox="0 0 56 56" ><path fill="#2563EB" d="M18.9265 8.5C19.8781 8.5 20.8 8.81661 21.5488 9.39592L21.7486 9.56039L24.7042 12.1465C24.9213 12.3364 25.1896 12.4553 25.4732 12.4896L25.645 12.5H45.4286C47.7192 12.5 49.59 14.297 49.7083 16.5581L49.7143 16.7857L49.7153 25.7073C48.8539 24.9362 47.8944 24.2723 46.8579 23.7368L46.8571 16.7857C46.8571 16.046 46.295 15.4377 45.5746 15.3645L45.4286 15.3571L25.5399 15.3559L23.1091 18.3454C22.3496 19.2802 21.2346 19.8492 20.04 19.9209L19.7829 19.9286L6.85714 19.9274V38.5C6.85714 39.2397 7.41929 39.848 8.13965 39.9212L8.28571 39.9286L27.4498 39.9291C27.7563 40.9357 28.1755 41.8932 28.6926 42.7869L8.28571 42.7857C5.99513 42.7857 4.12426 40.9887 4.00594 38.7276L4 38.5V12.7857C4 10.4951 5.79698 8.62426 8.0581 8.50594L8.28571 8.5H18.9265ZM18.9265 11.3571H8.28571C7.54605 11.3571 6.93768 11.9193 6.86452 12.6397L6.85714 12.7857V17.0703L19.7829 17.0714C20.1594 17.0714 20.5182 16.923 20.7838 16.6622L20.8917 16.5437L22.76 14.2429L19.8672 11.7106C19.6502 11.5207 19.3819 11.4019 19.0982 11.3675L18.9265 11.3571ZM40.5714 24.5C46.8833 24.5 52 29.6167 52 35.9286C52 42.2404 46.8833 47.3571 40.5714 47.3571C34.2596 47.3571 29.1429 42.2404 29.1429 35.9286C29.1429 29.6167 34.2596 24.5 40.5714 24.5ZM40.5714 29.0714C39.9853 29.0714 39.5023 29.5126 39.4363 30.081L39.4286 30.2143V34.7857H34.8571C34.271 34.7857 33.788 35.2269 33.722 35.7953L33.7143 35.9286C33.7143 36.5147 34.1555 36.9977 34.7239 37.0637L34.8571 37.0714H39.4286V41.6429C39.4286 42.229 39.8698 42.712 40.4381 42.778L40.5714 42.7857C41.1575 42.7857 41.6406 42.3445 41.7066 41.7761L41.7143 41.6429V37.0714H46.2857C46.8718 37.0714 47.3549 36.6302 47.4209 36.0619L47.4286 35.9286C47.4286 35.3425 46.9874 34.8594 46.419 34.7934L46.2857 34.7857H41.7143V30.2143C41.7143 29.6282 41.2731 29.1451 40.7047 29.0791L40.5714 29.0714Z"></path></svg>