<svg width="1em" height="1em" viewBox="0 0 17 16" ><path fill="#2563EB" clip-rule="evenodd" d="M2.9 13V3C2.9 2.66863 3.16863 2.4 3.5 2.4H9.58013C9.75529 2.4 9.92169 2.47654 10.0357 2.60953L11.9556 4.84937C12.0488 4.95812 12.1 5.09662 12.1 5.23985V7.3C12.1 7.6866 12.4134 8 12.8 8C13.1866 8 13.5 7.6866 13.5 7.3V5.23985C13.5 4.76243 13.3292 4.30075 13.0185 3.93827L11.0986 1.69842C10.7187 1.25513 10.164 1 9.58013 1H3.5C2.39543 1 1.5 1.89543 1.5 3V13C1.5 14.1046 2.39543 15 3.5 15H8.8C9.1866 15 9.5 14.6866 9.5 14.3C9.5 13.9134 9.1866 13.6 8.8 13.6H3.5C3.16863 13.6 2.9 13.3314 2.9 13ZM5.00005 4.80005C4.61345 4.80005 4.30005 5.11345 4.30005 5.50005C4.30005 5.88665 4.61345 6.20005 5.00005 6.20005H9.00005C9.38665 6.20005 9.70005 5.88665 9.70005 5.50005C9.70005 5.11345 9.38665 4.80005 9.00005 4.80005H5.00005ZM5.00005 7.80005C4.61345 7.80005 4.30005 8.11345 4.30005 8.50005C4.30005 8.88665 4.61345 9.20005 5.00005 9.20005H7.00005C7.38665 9.20005 7.70005 8.88665 7.70005 8.50005C7.70005 8.11345 7.38665 7.80005 7.00005 7.80005H5.00005ZM12.8 9.29999C13.1866 9.29999 13.5 9.61339 13.5 9.99999V11.3H14.8001C15.1867 11.3 15.5001 11.6134 15.5001 12C15.5001 12.3866 15.1867 12.7 14.8001 12.7H13.5V14C13.5 14.3866 13.1866 14.7 12.8 14.7C12.4134 14.7 12.1 14.3866 12.1 14L12.1 12.7H10.8001C10.4135 12.7 10.1001 12.3866 10.1001 12C10.1001 11.6134 10.4135 11.3 10.8001 11.3H12.1V9.99999C12.1 9.61339 12.4134 9.29999 12.8 9.29999Z" fill="currentColor"></path></svg>